<svg xmlns="http://www.w3.org/2000/svg" pointer-events="none" class="leaflet-zoom-animated" width="1447" height="872" viewBox="-121 -73 1447 872" style="transform: translate3d(-121px, -73px, 0px);"><g><path class="leaflet-interactive" stroke="black" stroke-opacity="1" stroke-width="2" stroke-linecap="round" stroke-linejoin="round" fill="#fff" fill-opacity="0.2" fill-rule="evenodd" d="M586 531L588 539L592 541L597 541L593 549L597 559L592 561L580 574L580 576L581 575L585 578L585 573L587 575L594 573L599 576L596 578L598 581L597 586L603 588L602 591L604 596L612 597L613 600L617 601L617 604L619 604L615 611L618 612L617 613L619 615L620 614L621 618L619 629L636 643L641 636L639 633L639 629L643 626L644 621L649 620L648 617L653 611L652 606L654 601L652 595L659 591L663 593L661 597L664 597L667 601L669 600L667 604L669 606L673 606L676 596L688 599L695 592L697 593L698 591L708 586L711 588L716 587L720 582L730 583L734 581L735 583L737 583L743 581L748 587L754 589L753 598L755 603L758 600L763 599L764 602L771 605L772 604L772 606L777 609L779 618L782 621L782 617L786 613L784 611L789 611L793 608L791 607L793 605L793 601L800 601L803 599L797 597L797 584L794 584L792 581L792 573L787 568L788 563L786 557L784 558L785 554L783 554L781 551L788 548L786 545L786 540L787 539L788 541L787 538L791 533L787 531L785 526L786 521L784 519L786 518L786 510L790 506L789 505L792 499L792 491L789 490L789 492L785 492L786 494L780 492L781 486L777 486L778 485L773 479L775 478L774 477L777 473L774 471L771 474L770 473L770 477L756 476L763 471L765 467L767 467L765 464L768 463L767 460L765 460L766 452L772 450L770 447L772 443L776 441L775 437L778 436L779 434L778 428L781 425L780 422L785 422L791 417L789 397L784 393L782 389L785 386L787 379L790 378L790 372L795 372L794 371L797 368L799 368L799 373L802 374L803 372L806 379L810 381L813 377L809 372L809 369L806 368L808 368L808 365L806 364L807 362L805 361L806 359L804 356L806 354L811 359L815 360L813 354L818 350L821 351L821 343L824 339L827 340L827 336L823 333L824 327L820 324L822 323L822 321L817 315L816 308L818 304L818 299L822 298L825 294L825 290L822 287L822 285L823 283L826 282L827 278L824 278L821 273L819 273L819 275L817 276L816 271L813 272L811 269L803 268L800 263L801 258L799 252L799 249L802 250L802 248L807 245L805 239L809 231L818 226L818 215L812 213L809 209L809 205L805 206L805 203L802 201L804 200L799 196L797 192L791 192L781 184L779 184L774 190L771 189L768 194L767 200L762 196L759 197L756 196L755 194L746 195L744 196L741 202L738 201L735 204L732 203L722 207L725 213L713 213L710 216L707 216L708 217L706 218L708 218L706 220L699 217L700 216L698 216L697 212L695 210L694 211L694 209L690 210L689 207L686 211L687 213L681 219L677 218L676 216L665 220L662 224L659 224L658 220L652 220L650 230L648 233L649 238L647 244L645 244L644 248L642 249L640 249L637 244L639 240L638 239L635 238L630 242L619 235L618 237L614 237L611 234L607 235L605 236L607 249L604 253L602 253L599 260L597 256L594 256L588 243L582 247L580 247L579 245L576 247L571 252L570 256L560 256L557 254L555 250L549 255L542 258L538 264L531 267L528 271L523 266L521 268L521 259L517 257L518 249L514 249L513 245L511 245L510 243L508 244L509 241L506 243L508 245L507 246L505 243L503 245L501 244L496 247L497 250L491 254L491 257L487 258L490 261L489 264L497 272L497 274L494 275L479 289L483 294L481 306L489 305L493 309L487 316L490 321L488 326L486 327L486 331L482 334L488 334L482 337L486 340L488 348L493 351L494 353L492 357L496 361L498 366L502 369L503 373L507 368L511 371L518 368L524 369L526 371L528 370L530 374L540 377L542 375L537 369L538 362L537 363L536 360L541 360L543 354L545 354L551 347L557 344L561 338L564 343L570 345L571 348L569 354L572 358L570 362L561 365L563 370L561 371L561 373L559 373L558 371L555 373L555 369L548 378L546 375L544 375L541 384L531 389L531 398L526 399L525 403L523 400L519 401L520 403L516 407L519 410L516 410L518 416L516 417L517 420L515 422L516 427L513 429L512 433L510 433L511 435L506 442L509 445L504 447L501 455L501 458L503 462L506 463L505 464L507 467L504 473L505 478L510 480L509 482L511 485L515 480L520 489L526 490L526 495L528 494L529 496L531 496L539 492L548 495L551 499L550 500L554 502L556 509L561 516L560 523L563 529L574 535L575 536L573 538L577 541L579 540L577 536L585 531z" id="河源市"/><path class="leaflet-interactive" stroke="#333" stroke-opacity="1" stroke-width="1" stroke-linecap="round" stroke-linejoin="round" stroke-dasharray="1,6" fill="#eee" fill-opacity="0.5" fill-rule="evenodd" d="M553 501L556 506L556 509L561 516L560 523L563 529L574 535L575 536L573 538L577 541L579 540L577 536L585 531L585 527L592 522L592 505L597 498L598 493L601 490L604 491L609 489L611 484L615 482L606 476L607 472L604 467L606 460L600 454L601 452L595 451L595 459L594 458L592 460L594 460L586 465L587 467L586 469L584 469L583 473L577 472L577 474L573 477L575 478L576 482L570 486L572 488L571 494L562 495L557 500L554 501z" id="源城区"/><path class="leaflet-interactive" stroke="#333" stroke-opacity="1" stroke-width="1" stroke-linecap="round" stroke-linejoin="round" stroke-dasharray="1,6" fill="#eee" fill-opacity="0.5" fill-rule="evenodd" d="M586 531L588 539L592 541L597 541L593 549L597 559L592 561L580 574L580 576L581 575L585 578L585 573L587 575L594 573L599 576L596 578L598 581L597 586L603 588L602 591L604 596L612 597L613 600L617 601L617 604L619 604L615 611L618 612L617 613L619 615L620 614L621 618L619 629L636 643L641 636L639 633L639 629L643 626L644 621L649 620L648 617L653 611L652 606L654 601L652 595L659 591L663 593L661 597L664 597L667 601L669 600L667 604L669 606L673 606L676 596L688 599L695 592L697 593L698 591L708 586L711 588L716 587L720 582L730 583L734 581L735 583L737 583L743 581L748 587L754 589L753 598L755 603L758 600L763 599L764 602L771 605L772 604L772 606L777 609L779 618L782 621L782 617L786 613L784 611L789 611L793 608L791 607L793 605L793 601L800 601L803 599L797 597L797 584L794 584L792 581L792 573L787 568L788 563L786 557L784 558L785 554L783 554L781 551L788 548L786 545L786 540L787 539L788 541L787 538L791 533L787 531L785 526L786 521L784 519L786 518L786 510L790 506L789 505L792 499L792 491L789 490L789 492L785 492L786 494L780 492L781 486L777 486L778 485L773 479L775 478L774 477L777 473L774 471L771 474L770 473L770 477L757 477L753 475L744 479L741 476L732 477L730 480L729 479L724 482L726 486L717 491L713 491L713 494L709 496L700 496L695 489L686 485L684 480L682 480L678 476L675 479L672 479L667 487L665 486L666 485L664 485L665 483L659 479L653 480L653 478L642 481L638 481L635 478L630 478L624 481L616 480L613 484L611 484L609 488L604 491L601 490L598 493L597 498L592 505L592 522L586 526L585 529z" id="紫金县"/><path class="leaflet-interactive" stroke="#333" stroke-opacity="1" stroke-width="1" stroke-linecap="round" stroke-linejoin="round" stroke-dasharray="1,6" fill="#eee" fill-opacity="0.5" fill-rule="evenodd" d="M767 451L772 450L770 447L772 443L776 441L775 437L778 436L779 434L778 428L781 425L780 422L785 422L791 417L789 397L784 393L782 389L785 386L787 379L790 378L790 372L795 372L794 371L797 368L799 368L799 373L802 374L803 372L806 379L810 381L813 377L809 372L809 369L806 368L808 368L808 365L806 364L807 362L805 361L806 359L804 356L806 354L811 359L815 360L813 354L818 350L821 351L821 343L824 339L827 340L827 336L823 333L824 327L820 324L822 323L822 321L817 315L816 308L818 304L818 299L822 298L825 294L825 290L822 287L822 285L823 283L826 282L827 278L824 278L821 273L819 273L819 275L817 276L816 271L813 272L811 269L803 268L800 263L801 258L799 252L799 249L802 250L802 248L807 245L805 239L809 231L818 226L818 215L812 213L809 209L809 205L805 206L805 203L802 201L804 200L799 196L797 192L791 192L781 184L779 184L774 190L771 189L768 194L767 200L762 196L759 197L756 196L755 194L750 194L744 196L741 202L738 201L735 204L732 203L722 207L728 220L731 221L738 230L745 233L746 235L740 238L738 242L738 247L732 249L731 252L729 252L732 257L738 261L733 261L734 263L732 265L736 269L735 273L732 275L736 281L734 281L734 283L737 289L733 292L733 294L730 295L730 306L727 310L723 311L720 314L722 315L722 322L723 324L725 324L725 330L729 331L732 334L735 334L736 341L734 342L730 350L723 351L716 358L709 356L705 357L704 359L701 358L696 362L696 368L692 371L690 377L693 381L700 379L703 376L706 382L704 384L708 393L713 394L713 397L716 402L720 405L720 408L716 407L715 405L711 405L711 408L718 415L722 414L718 422L727 426L726 427L732 424L736 425L737 422L742 425L743 424L743 427L746 428L746 431L750 435L753 435L752 436L759 444L759 447L767 451z" id="龙川县"/><path class="leaflet-interactive" stroke="#333" stroke-opacity="1" stroke-width="1" stroke-linecap="round" stroke-linejoin="round" stroke-dasharray="1,6" fill="#eee" fill-opacity="0.5" fill-rule="evenodd" d="M599 260L597 256L594 256L588 243L582 247L580 247L579 245L576 247L571 252L570 256L560 256L557 254L555 250L549 255L542 258L538 264L531 267L528 271L523 266L521 268L521 259L517 257L518 249L514 249L513 245L511 245L510 243L508 244L509 241L506 243L508 245L507 246L505 243L503 245L501 244L496 247L497 250L491 254L491 257L487 258L490 261L489 264L497 272L497 274L494 275L479 289L483 294L481 306L489 305L493 309L487 316L490 321L488 326L486 327L486 331L482 334L488 334L482 337L486 340L488 348L493 351L494 353L492 357L496 361L498 366L502 369L503 373L507 368L511 371L518 368L524 369L526 371L528 370L530 374L540 377L542 375L537 369L538 362L537 363L536 360L541 360L543 354L545 354L551 347L557 344L561 338L563 342L570 345L571 348L569 351L569 354L572 358L571 361L561 365L562 369L567 373L570 381L572 381L577 376L583 376L582 369L577 365L578 361L584 364L584 366L589 371L589 376L604 376L607 371L607 368L610 368L613 365L614 366L617 364L621 366L628 359L631 359L633 357L631 354L632 351L637 350L640 355L646 346L646 341L654 339L658 336L657 331L654 329L654 324L645 329L642 325L640 325L640 322L638 320L635 320L633 321L632 326L630 326L628 324L627 317L623 319L624 329L622 331L617 327L611 329L611 319L613 315L610 312L612 307L608 303L608 301L610 300L607 294L612 290L610 289L608 283L605 282L605 280L601 280L595 274L598 272L601 264L599 260z" id="连平县"/><path class="leaflet-interactive" stroke="#333" stroke-opacity="1" stroke-width="1" stroke-linecap="round" stroke-linejoin="round" stroke-dasharray="1,6" fill="#eee" fill-opacity="0.5" fill-rule="evenodd" d="M725 213L713 213L710 216L707 216L708 217L706 218L708 218L706 220L699 217L700 216L698 216L697 212L695 210L694 211L694 209L690 210L689 207L686 211L687 213L681 219L677 218L676 216L665 220L662 224L659 224L658 220L652 220L650 230L648 233L649 238L647 244L645 244L644 248L642 249L640 249L637 244L639 240L638 239L635 238L630 242L619 235L618 237L614 237L611 234L605 236L607 249L601 255L599 260L601 264L599 266L598 272L595 274L601 280L604 280L606 283L608 283L609 287L612 290L607 293L610 299L608 303L612 307L610 312L613 315L611 318L612 321L610 327L613 329L617 327L621 331L623 330L623 319L625 317L628 318L628 324L630 326L633 325L634 320L639 321L640 324L644 327L644 329L654 324L654 329L657 331L658 335L662 339L667 341L669 350L671 352L677 350L681 353L682 357L691 359L692 363L698 361L701 358L703 359L709 356L715 358L721 354L722 351L730 350L734 342L736 341L736 336L732 334L730 331L725 331L725 325L722 323L722 316L720 315L723 311L730 307L730 296L737 289L736 285L734 284L734 282L736 282L733 279L732 275L735 273L736 269L732 266L732 264L734 264L733 262L738 261L734 259L729 252L731 252L732 249L738 248L738 242L741 237L745 235L745 233L738 230L732 222L727 219L725 216L726 213z" id="和平县"/><path class="leaflet-interactive" stroke="#333" stroke-opacity="1" stroke-width="1" stroke-linecap="round" stroke-linejoin="round" stroke-dasharray="1,6" fill="#eee" fill-opacity="0.5" fill-rule="evenodd" d="M696 362L692 363L690 358L683 357L678 350L671 352L669 350L666 340L658 336L654 339L646 341L646 345L641 355L637 350L631 352L633 356L631 359L623 363L622 366L617 364L614 366L613 365L610 368L607 368L605 374L599 377L589 376L589 371L580 361L578 361L577 365L583 371L583 375L582 377L575 377L572 381L570 381L567 375L568 373L563 370L561 371L561 373L559 373L558 371L555 373L555 369L553 370L553 372L548 378L546 375L544 375L541 384L531 389L531 398L526 399L525 403L523 400L519 401L520 403L516 407L519 410L516 410L518 416L516 417L517 420L515 422L516 427L513 429L512 433L510 433L511 435L506 442L509 445L504 447L501 455L501 458L503 462L506 463L505 464L507 467L504 473L505 478L510 480L509 482L511 485L515 480L520 489L526 490L526 495L528 494L529 496L531 496L533 494L541 492L548 495L551 501L555 501L562 495L571 494L572 488L570 486L576 481L573 476L577 474L577 472L583 473L584 469L587 468L587 464L589 465L591 461L595 460L593 460L594 458L595 459L595 451L599 451L600 454L606 460L606 464L604 465L607 472L606 476L615 482L616 480L623 481L630 477L632 479L635 478L638 481L653 478L653 480L658 479L662 482L665 482L664 484L666 485L666 487L669 486L670 481L674 478L675 479L677 476L681 480L684 480L685 485L695 489L698 495L700 496L709 496L713 494L713 491L716 491L721 488L722 489L726 485L724 484L724 482L726 480L730 480L734 476L740 476L744 479L750 475L756 476L763 471L765 467L767 467L765 464L768 463L767 460L765 460L767 451L760 447L760 444L757 443L752 434L750 435L745 430L746 428L744 428L743 425L739 424L738 422L736 424L732 424L726 427L727 426L718 421L722 414L718 415L711 408L711 406L714 405L717 408L719 408L720 406L713 397L713 394L709 394L708 390L706 390L704 385L706 383L703 378L704 376L703 375L700 379L693 381L690 378L692 371L695 370L696 366z" id="东源县"/></g></svg>